<mxfile host="Electron" agent="Mozilla/5.0 (Macintosh; Intel Mac OS X 10_15_7) AppleWebKit/537.36 (KHTML, like Gecko) draw.io/27.0.9 Chrome/134.0.6998.205 Electron/35.4.0 Safari/537.36" version="27.0.9">
  <diagram name="페이지-1" id="_tKk17_IzhRB0h72TxY4">
    <mxGraphModel dx="1722" dy="967" grid="1" gridSize="10" guides="1" tooltips="1" connect="1" arrows="1" fold="1" page="1" pageScale="1" pageWidth="827" pageHeight="1169" math="1" shadow="0">
      <root>
        <mxCell id="0" />
        <mxCell id="1" parent="0" />
        <mxCell id="3GKx5LGdMpC_uIUxmKCX-72" value="" style="ellipse;whiteSpace=wrap;html=1;aspect=fixed;fillColor=#ffe6cc;strokeColor=#d79b00;" parent="1" vertex="1">
          <mxGeometry x="1380" y="561.76" width="80" height="80" as="geometry" />
        </mxCell>
        <mxCell id="dy6sLSSkbK1G9t8MEil--52" value="&lt;font style=&quot;color: rgb(234, 107, 102);&quot;&gt;Agent&lt;/font&gt;" style="text;html=1;align=center;verticalAlign=middle;whiteSpace=wrap;rounded=0;fontSize=30;fontColor=#B9E0A5;fontStyle=1" parent="1" vertex="1">
          <mxGeometry x="200" y="611.13" width="90.63" height="30" as="geometry" />
        </mxCell>
        <mxCell id="dy6sLSSkbK1G9t8MEil--53" value="" style="ellipse;whiteSpace=wrap;html=1;fillColor=#e1d5e7;strokeColor=#9673a6;" parent="1" vertex="1">
          <mxGeometry x="323" y="521" width="137" height="135" as="geometry" />
        </mxCell>
        <mxCell id="dy6sLSSkbK1G9t8MEil--54" value="&lt;font style=&quot;color: rgb(181, 115, 157);&quot;&gt;Hazard&lt;/font&gt;" style="text;html=1;align=center;verticalAlign=middle;whiteSpace=wrap;rounded=0;fontSize=30;fontColor=#B9E0A5;fontStyle=1" parent="1" vertex="1">
          <mxGeometry x="200" y="387" width="103" height="30" as="geometry" />
        </mxCell>
        <mxCell id="3GKx5LGdMpC_uIUxmKCX-4" value="" style="group;rotation=-165;" parent="1" vertex="1" connectable="0">
          <mxGeometry x="314.6328711838059" y="586.0013938747115" width="86.86359161726426" height="190.99651702007577" as="geometry" />
        </mxCell>
        <mxCell id="xUxZFdSUuav-6nXGCcJX-21" value="" style="group;rotation=-60;" vertex="1" connectable="0" parent="3GKx5LGdMpC_uIUxmKCX-4">
          <mxGeometry x="-34.63287118380589" y="3.9986061252885037" width="140.74646280107015" height="143.16791089478727" as="geometry" />
        </mxCell>
        <mxCell id="xUxZFdSUuav-6nXGCcJX-14" value="" style="rounded=0;whiteSpace=wrap;html=1;fillColor=#f8cecc;strokeColor=default;rotation=-218;" vertex="1" parent="xUxZFdSUuav-6nXGCcJX-21">
          <mxGeometry x="24" y="9" width="78.75" height="68.57142857142857" as="geometry" />
        </mxCell>
        <mxCell id="xUxZFdSUuav-6nXGCcJX-15" value="" style="rounded=0;whiteSpace=wrap;html=1;fillColor=#dae8fc;strokeColor=default;rotation=-218;" vertex="1" parent="xUxZFdSUuav-6nXGCcJX-21">
          <mxGeometry x="26" y="1" width="26.25" height="17.142857142857142" as="geometry" />
        </mxCell>
        <mxCell id="xUxZFdSUuav-6nXGCcJX-16" value="" style="rounded=0;whiteSpace=wrap;html=1;fillColor=#dae8fc;strokeColor=default;rotation=-218;" vertex="1" parent="xUxZFdSUuav-6nXGCcJX-21">
          <mxGeometry x="86" y="69" width="8.75" height="17.142857142857142" as="geometry" />
        </mxCell>
        <mxCell id="xUxZFdSUuav-6nXGCcJX-17" value="" style="rounded=0;whiteSpace=wrap;html=1;fillColor=#dae8fc;strokeColor=default;rotation=-218;" vertex="1" parent="xUxZFdSUuav-6nXGCcJX-21">
          <mxGeometry x="51" y="84" width="96.25" height="8.571428571428571" as="geometry" />
        </mxCell>
        <mxCell id="xUxZFdSUuav-6nXGCcJX-18" value="" style="shape=cylinder3;whiteSpace=wrap;html=1;boundedLbl=1;backgroundOutline=1;size=2.875;direction=south;fillColor=#f8cecc;strokeColor=default;rotation=-218;" vertex="1" parent="xUxZFdSUuav-6nXGCcJX-21">
          <mxGeometry x="42" y="112" width="21.875" height="25.71428571428571" as="geometry" />
        </mxCell>
        <mxCell id="xUxZFdSUuav-6nXGCcJX-19" value="" style="shape=cylinder3;whiteSpace=wrap;html=1;boundedLbl=1;backgroundOutline=1;size=2.875;direction=south;fillColor=#f8cecc;strokeColor=default;rotation=-218;" vertex="1" parent="xUxZFdSUuav-6nXGCcJX-21">
          <mxGeometry x="135" y="40" width="21.875" height="25.71428571428571" as="geometry" />
        </mxCell>
        <mxCell id="3GKx5LGdMpC_uIUxmKCX-17" value="" style="shape=waypoint;sketch=0;size=6;pointerEvents=1;points=[];fillColor=none;resizable=0;rotatable=0;perimeter=centerPerimeter;snapToPoint=1;" parent="3GKx5LGdMpC_uIUxmKCX-4" vertex="1">
          <mxGeometry x="24.997128816194106" y="34.99860612528846" width="20" height="20" as="geometry" />
        </mxCell>
        <mxCell id="3GKx5LGdMpC_uIUxmKCX-18" value="" style="endArrow=none;dashed=1;html=1;dashPattern=1 3;strokeWidth=2;rounded=0;exitX=0.519;exitY=0.3;exitDx=0;exitDy=0;exitPerimeter=0;" parent="1" source="3GKx5LGdMpC_uIUxmKCX-17" target="3GKx5LGdMpC_uIUxmKCX-16" edge="1">
          <mxGeometry width="50" height="50" relative="1" as="geometry">
            <mxPoint x="340" y="597" as="sourcePoint" />
            <mxPoint x="390" y="547" as="targetPoint" />
          </mxGeometry>
        </mxCell>
        <mxCell id="3GKx5LGdMpC_uIUxmKCX-16" value="" style="shape=waypoint;sketch=0;size=6;pointerEvents=1;points=[];fillColor=none;resizable=0;rotatable=0;perimeter=centerPerimeter;snapToPoint=1;" parent="1" vertex="1">
          <mxGeometry x="381.5" y="578.5" width="20" height="20" as="geometry" />
        </mxCell>
        <mxCell id="3GKx5LGdMpC_uIUxmKCX-20" value="&lt;svg xmlns=&quot;http://www.w3.org/2000/svg&quot; width=&quot;7.85ex&quot; height=&quot;1.927ex&quot; role=&quot;img&quot; viewBox=&quot;0 -694 3469.8 851.8&quot; xmlns:xlink=&quot;http://www.w3.org/1999/xlink&quot; style=&quot;vertical-align: -0.357ex;&quot;&gt;&lt;defs&gt;&lt;path id=&quot;MJX-1-TEX-I-1D451&quot; d=&quot;M366 683Q367 683 438 688T511 694Q523 694 523 686Q523 679 450 384T375 83T374 68Q374 26 402 26Q411 27 422 35Q443 55 463 131Q469 151 473 152Q475 153 483 153H487H491Q506 153 506 145Q506 140 503 129Q490 79 473 48T445 8T417 -8Q409 -10 393 -10Q359 -10 336 5T306 36L300 51Q299 52 296 50Q294 48 292 46Q233 -10 172 -10Q117 -10 75 30T33 157Q33 205 53 255T101 341Q148 398 195 420T280 442Q336 442 364 400Q369 394 369 396Q370 400 396 505T424 616Q424 629 417 632T378 637H357Q351 643 351 645T353 664Q358 683 366 683ZM352 326Q329 405 277 405Q242 405 210 374T160 293Q131 214 119 129Q119 126 119 118T118 106Q118 61 136 44T179 26Q233 26 290 98L298 109L352 326Z&quot;&gt;&lt;/path&gt;&lt;path id=&quot;MJX-1-TEX-I-1D461&quot; d=&quot;M26 385Q19 392 19 395Q19 399 22 411T27 425Q29 430 36 430T87 431H140L159 511Q162 522 166 540T173 566T179 586T187 603T197 615T211 624T229 626Q247 625 254 615T261 596Q261 589 252 549T232 470L222 433Q222 431 272 431H323Q330 424 330 420Q330 398 317 385H210L174 240Q135 80 135 68Q135 26 162 26Q197 26 230 60T283 144Q285 150 288 151T303 153H307Q322 153 322 145Q322 142 319 133Q314 117 301 95T267 48T216 6T155 -11Q125 -11 98 4T59 56Q57 64 57 83V101L92 241Q127 382 128 383Q128 385 77 385H26Z&quot;&gt;&lt;/path&gt;&lt;path id=&quot;MJX-1-TEX-N-3D&quot; d=&quot;M56 347Q56 360 70 367H707Q722 359 722 347Q722 336 708 328L390 327H72Q56 332 56 347ZM56 153Q56 168 72 173H708Q722 163 722 153Q722 140 707 133H70Q56 140 56 153Z&quot;&gt;&lt;/path&gt;&lt;path id=&quot;MJX-1-TEX-N-30&quot; d=&quot;M96 585Q152 666 249 666Q297 666 345 640T423 548Q460 465 460 320Q460 165 417 83Q397 41 362 16T301 -15T250 -22Q224 -22 198 -16T137 16T82 83Q39 165 39 320Q39 494 96 585ZM321 597Q291 629 250 629Q208 629 178 597Q153 571 145 525T137 333Q137 175 145 125T181 46Q209 16 250 16Q290 16 318 46Q347 76 354 130T362 333Q362 478 354 524T321 597Z&quot;&gt;&lt;/path&gt;&lt;path id=&quot;MJX-1-TEX-N-2E&quot; d=&quot;M78 60Q78 84 95 102T138 120Q162 120 180 104T199 61Q199 36 182 18T139 0T96 17T78 60Z&quot;&gt;&lt;/path&gt;&lt;path id=&quot;MJX-1-TEX-N-31&quot; d=&quot;M213 578L200 573Q186 568 160 563T102 556H83V602H102Q149 604 189 617T245 641T273 663Q275 666 285 666Q294 666 302 660V361L303 61Q310 54 315 52T339 48T401 46H427V0H416Q395 3 257 3Q121 3 100 0H88V46H114Q136 46 152 46T177 47T193 50T201 52T207 57T213 61V578Z&quot;&gt;&lt;/path&gt;&lt;/defs&gt;&lt;g stroke=&quot;currentColor&quot; fill=&quot;currentColor&quot; stroke-width=&quot;0&quot; transform=&quot;scale(1,-1)&quot;&gt;&lt;g data-mml-node=&quot;math&quot;&gt;&lt;g data-mml-node=&quot;mstyle&quot;&gt;&lt;g data-mml-node=&quot;msub&quot;&gt;&lt;g data-mml-node=&quot;mi&quot;&gt;&lt;use data-c=&quot;1D451&quot; xlink:href=&quot;#MJX-1-TEX-I-1D451&quot;&gt;&lt;/use&gt;&lt;/g&gt;&lt;g data-mml-node=&quot;mi&quot; transform=&quot;translate(553,-150) scale(0.707)&quot;&gt;&lt;use data-c=&quot;1D461&quot; xlink:href=&quot;#MJX-1-TEX-I-1D461&quot;&gt;&lt;/use&gt;&lt;/g&gt;&lt;/g&gt;&lt;g data-mml-node=&quot;mo&quot; transform=&quot;translate(1136,0)&quot;&gt;&lt;use data-c=&quot;3D&quot; xlink:href=&quot;#MJX-1-TEX-N-3D&quot;&gt;&lt;/use&gt;&lt;/g&gt;&lt;g data-mml-node=&quot;mn&quot; transform=&quot;translate(2191.8,0)&quot;&gt;&lt;use data-c=&quot;30&quot; xlink:href=&quot;#MJX-1-TEX-N-30&quot;&gt;&lt;/use&gt;&lt;use data-c=&quot;2E&quot; xlink:href=&quot;#MJX-1-TEX-N-2E&quot; transform=&quot;translate(500,0)&quot;&gt;&lt;/use&gt;&lt;use data-c=&quot;31&quot; xlink:href=&quot;#MJX-1-TEX-N-31&quot; transform=&quot;translate(778,0)&quot;&gt;&lt;/use&gt;&lt;/g&gt;&lt;/g&gt;&lt;/g&gt;&lt;/g&gt;&lt;/svg&gt;" style="text;html=1;align=center;verticalAlign=middle;whiteSpace=wrap;rounded=0;fontSize=20;" parent="1" vertex="1">
          <mxGeometry x="413.13" y="678" width="100" height="30" as="geometry" />
        </mxCell>
        <mxCell id="3GKx5LGdMpC_uIUxmKCX-22" value="" style="curved=1;endArrow=classic;html=1;rounded=0;entryX=0.5;entryY=0;entryDx=0;entryDy=0;" parent="1" target="3GKx5LGdMpC_uIUxmKCX-20" edge="1">
          <mxGeometry width="50" height="50" relative="1" as="geometry">
            <mxPoint x="370" y="611" as="sourcePoint" />
            <mxPoint x="260" y="577" as="targetPoint" />
            <Array as="points">
              <mxPoint x="400" y="617" />
            </Array>
          </mxGeometry>
        </mxCell>
        <mxCell id="3GKx5LGdMpC_uIUxmKCX-24" value="" style="shape=waypoint;sketch=0;size=6;pointerEvents=1;points=[];fillColor=none;resizable=0;rotatable=0;perimeter=centerPerimeter;snapToPoint=1;" parent="1" vertex="1">
          <mxGeometry x="313" y="578.5" width="20" height="20" as="geometry" />
        </mxCell>
        <mxCell id="3GKx5LGdMpC_uIUxmKCX-25" value="" style="endArrow=none;html=1;rounded=0;exitX=0.35;exitY=0.425;exitDx=0;exitDy=0;exitPerimeter=0;" parent="1" source="3GKx5LGdMpC_uIUxmKCX-24" target="3GKx5LGdMpC_uIUxmKCX-16" edge="1">
          <mxGeometry width="50" height="50" relative="1" as="geometry">
            <mxPoint x="300" y="627" as="sourcePoint" />
            <mxPoint x="350" y="577" as="targetPoint" />
          </mxGeometry>
        </mxCell>
        <mxCell id="3GKx5LGdMpC_uIUxmKCX-26" value="`r_\text{hazard} = 0.2`" style="text;html=1;align=center;verticalAlign=middle;whiteSpace=wrap;rounded=0;fontSize=20;" parent="1" vertex="1">
          <mxGeometry x="283.13" y="556" width="133" height="30" as="geometry" />
        </mxCell>
        <mxCell id="3GKx5LGdMpC_uIUxmKCX-27" value="&lt;font style=&quot;color: rgb(255, 51, 51);&quot;&gt;cost = 0.1&lt;/font&gt;" style="text;html=1;align=center;verticalAlign=middle;whiteSpace=wrap;rounded=0;fontStyle=1;fontSize=25;" parent="1" vertex="1">
          <mxGeometry x="283.13" y="747" width="130" height="30" as="geometry" />
        </mxCell>
        <mxCell id="3GKx5LGdMpC_uIUxmKCX-28" value="&lt;font style=&quot;color: rgb(234, 107, 102);&quot;&gt;Agent&lt;/font&gt;" style="text;html=1;align=center;verticalAlign=middle;whiteSpace=wrap;rounded=0;fontSize=30;fontColor=#B9E0A5;fontStyle=1" parent="1" vertex="1">
          <mxGeometry x="700" y="611.76" width="90.63" height="30" as="geometry" />
        </mxCell>
        <mxCell id="3GKx5LGdMpC_uIUxmKCX-30" value="&lt;font color=&quot;#b5739d&quot;&gt;Gremlin&lt;/font&gt;" style="text;html=1;align=center;verticalAlign=middle;whiteSpace=wrap;rounded=0;fontSize=30;fontColor=#B9E0A5;fontStyle=1" parent="1" vertex="1">
          <mxGeometry x="700" y="387" width="120" height="30" as="geometry" />
        </mxCell>
        <mxCell id="3GKx5LGdMpC_uIUxmKCX-42" value="&lt;font style=&quot;color: rgb(255, 51, 51);&quot;&gt;cost = 1.0&lt;/font&gt;" style="text;html=1;align=center;verticalAlign=middle;whiteSpace=wrap;rounded=0;fontStyle=1;fontSize=25;" parent="1" vertex="1">
          <mxGeometry x="780" y="747" width="130" height="30" as="geometry" />
        </mxCell>
        <mxCell id="3GKx5LGdMpC_uIUxmKCX-43" value="" style="shape=cube;whiteSpace=wrap;html=1;boundedLbl=1;backgroundOutline=1;darkOpacity=0.05;darkOpacity2=0.1;direction=south;fillColor=#e1d5e7;strokeColor=#9673a6;size=40;" parent="1" vertex="1">
          <mxGeometry x="880" y="502" width="130" height="133.62" as="geometry" />
        </mxCell>
        <mxCell id="3GKx5LGdMpC_uIUxmKCX-44" value="" style="group;rotation=-158;" parent="1" vertex="1" connectable="0">
          <mxGeometry x="800.003950546386" y="588.0028827345207" width="140" height="120" as="geometry" />
        </mxCell>
        <mxCell id="3GKx5LGdMpC_uIUxmKCX-45" value="" style="rounded=0;whiteSpace=wrap;html=1;fillColor=#f8cecc;strokeColor=default;rotation=-158;" parent="3GKx5LGdMpC_uIUxmKCX-44" vertex="1">
          <mxGeometry x="37" y="16" width="78.75" height="68.57142857142857" as="geometry" />
        </mxCell>
        <mxCell id="3GKx5LGdMpC_uIUxmKCX-46" value="" style="rounded=0;whiteSpace=wrap;html=1;fillColor=#dae8fc;strokeColor=default;rotation=-158;" parent="3GKx5LGdMpC_uIUxmKCX-44" vertex="1">
          <mxGeometry x="80" y="2" width="26.25" height="17.142857142857142" as="geometry" />
        </mxCell>
        <mxCell id="3GKx5LGdMpC_uIUxmKCX-47" value="" style="rounded=0;whiteSpace=wrap;html=1;fillColor=#dae8fc;strokeColor=default;rotation=-158;" parent="3GKx5LGdMpC_uIUxmKCX-44" vertex="1">
          <mxGeometry x="56" y="82" width="8.75" height="17.142857142857142" as="geometry" />
        </mxCell>
        <mxCell id="3GKx5LGdMpC_uIUxmKCX-48" value="" style="rounded=0;whiteSpace=wrap;html=1;fillColor=#dae8fc;strokeColor=default;rotation=-158;" parent="3GKx5LGdMpC_uIUxmKCX-44" vertex="1">
          <mxGeometry x="7" y="98" width="96.25" height="8.571428571428571" as="geometry" />
        </mxCell>
        <mxCell id="3GKx5LGdMpC_uIUxmKCX-49" value="" style="shape=cylinder3;whiteSpace=wrap;html=1;boundedLbl=1;backgroundOutline=1;size=2.875;direction=south;fillColor=#f8cecc;strokeColor=default;rotation=-158;" parent="3GKx5LGdMpC_uIUxmKCX-44" vertex="1">
          <mxGeometry x="-11" y="68" width="21.875" height="25.71428571428571" as="geometry" />
        </mxCell>
        <mxCell id="3GKx5LGdMpC_uIUxmKCX-50" value="" style="shape=cylinder3;whiteSpace=wrap;html=1;boundedLbl=1;backgroundOutline=1;size=2.875;direction=south;fillColor=#f8cecc;strokeColor=default;rotation=-158;" parent="3GKx5LGdMpC_uIUxmKCX-44" vertex="1">
          <mxGeometry x="98" y="112" width="21.875" height="25.71428571428571" as="geometry" />
        </mxCell>
        <mxCell id="3GKx5LGdMpC_uIUxmKCX-57" value="&lt;font&gt;Contact occured&lt;/font&gt;" style="text;html=1;align=center;verticalAlign=middle;whiteSpace=wrap;rounded=0;fontSize=25;" parent="1" vertex="1">
          <mxGeometry x="700" y="437" width="190" height="30" as="geometry" />
        </mxCell>
        <mxCell id="3GKx5LGdMpC_uIUxmKCX-59" value="&lt;font style=&quot;color: rgb(234, 107, 102);&quot;&gt;Agent&lt;/font&gt;" style="text;html=1;align=center;verticalAlign=middle;whiteSpace=wrap;rounded=0;fontSize=30;fontColor=#B9E0A5;fontStyle=1" parent="1" vertex="1">
          <mxGeometry x="1220" y="616.76" width="90.63" height="30" as="geometry" />
        </mxCell>
        <mxCell id="3GKx5LGdMpC_uIUxmKCX-60" value="&lt;font&gt;Button&lt;/font&gt;" style="text;html=1;align=center;verticalAlign=middle;whiteSpace=wrap;rounded=0;fontSize=30;fontColor=#FFB570;fontStyle=1" parent="1" vertex="1">
          <mxGeometry x="1211" y="387" width="120" height="30" as="geometry" />
        </mxCell>
        <mxCell id="3GKx5LGdMpC_uIUxmKCX-61" value="&lt;font style=&quot;color: rgb(255, 51, 51);&quot;&gt;cost = 1.0&lt;/font&gt;" style="text;html=1;align=center;verticalAlign=middle;whiteSpace=wrap;rounded=0;fontStyle=1;fontSize=25;" parent="1" vertex="1">
          <mxGeometry x="1300" y="752" width="130" height="30" as="geometry" />
        </mxCell>
        <mxCell id="3GKx5LGdMpC_uIUxmKCX-63" value="" style="group;rotation=-175;" parent="1" vertex="1" connectable="0">
          <mxGeometry x="1320.003950546386" y="593.0028827345207" width="140" height="120" as="geometry" />
        </mxCell>
        <mxCell id="3GKx5LGdMpC_uIUxmKCX-64" value="" style="rounded=0;whiteSpace=wrap;html=1;fillColor=#f8cecc;strokeColor=default;rotation=-175;" parent="3GKx5LGdMpC_uIUxmKCX-63" vertex="1">
          <mxGeometry x="34" y="15" width="78.75" height="68.57142857142857" as="geometry" />
        </mxCell>
        <mxCell id="3GKx5LGdMpC_uIUxmKCX-65" value="" style="rounded=0;whiteSpace=wrap;html=1;fillColor=#dae8fc;strokeColor=default;rotation=-175;" parent="3GKx5LGdMpC_uIUxmKCX-63" vertex="1">
          <mxGeometry x="65" y="-3" width="26.25" height="17.142857142857142" as="geometry" />
        </mxCell>
        <mxCell id="3GKx5LGdMpC_uIUxmKCX-66" value="" style="rounded=0;whiteSpace=wrap;html=1;fillColor=#dae8fc;strokeColor=default;rotation=-175;" parent="3GKx5LGdMpC_uIUxmKCX-63" vertex="1">
          <mxGeometry x="65" y="83" width="8.75" height="17.142857142857142" as="geometry" />
        </mxCell>
        <mxCell id="3GKx5LGdMpC_uIUxmKCX-67" value="" style="rounded=0;whiteSpace=wrap;html=1;fillColor=#dae8fc;strokeColor=default;rotation=-175;" parent="3GKx5LGdMpC_uIUxmKCX-63" vertex="1">
          <mxGeometry x="20" y="101" width="96.25" height="8.571428571428571" as="geometry" />
        </mxCell>
        <mxCell id="3GKx5LGdMpC_uIUxmKCX-68" value="" style="shape=cylinder3;whiteSpace=wrap;html=1;boundedLbl=1;backgroundOutline=1;size=2.875;direction=south;fillColor=#f8cecc;strokeColor=default;rotation=-175;" parent="3GKx5LGdMpC_uIUxmKCX-63" vertex="1">
          <mxGeometry x="-2" y="88" width="21.875" height="25.71428571428571" as="geometry" />
        </mxCell>
        <mxCell id="3GKx5LGdMpC_uIUxmKCX-69" value="" style="shape=cylinder3;whiteSpace=wrap;html=1;boundedLbl=1;backgroundOutline=1;size=2.875;direction=south;fillColor=#f8cecc;strokeColor=default;rotation=-175;" parent="3GKx5LGdMpC_uIUxmKCX-63" vertex="1">
          <mxGeometry x="115" y="98" width="21.875" height="25.71428571428571" as="geometry" />
        </mxCell>
        <mxCell id="3GKx5LGdMpC_uIUxmKCX-70" value="&lt;font&gt;Press the wrong button&lt;/font&gt;" style="text;html=1;align=center;verticalAlign=middle;whiteSpace=wrap;rounded=0;fontSize=25;" parent="1" vertex="1">
          <mxGeometry x="1211" y="437" width="280" height="30" as="geometry" />
        </mxCell>
        <mxCell id="3GKx5LGdMpC_uIUxmKCX-74" value="&lt;font&gt;Enter the area&lt;/font&gt;" style="text;html=1;align=center;verticalAlign=middle;whiteSpace=wrap;rounded=0;fontSize=25;" parent="1" vertex="1">
          <mxGeometry x="190" y="437" width="180" height="30" as="geometry" />
        </mxCell>
      </root>
    </mxGraphModel>
  </diagram>
</mxfile>
